<svg width="1098" height="129" viewBox="0 0 1098 129" fill="none" xmlns="http://www.w3.org/2000/svg">
<g clip-path="url(#clip0_1_163)" filter="url(#filter0_d_1_163)">
<path fill-rule="evenodd" clip-rule="evenodd" d="M168.501 8.87171C180.398 9.31139 193.363 20.4513 192.582 33.8024C191.831 46.65 179.573 55.4076 167.01 56.7419L145.935 57.0292L145.901 8.35888L168.501 8.87164V8.87171ZM276.127 55.8077L277.237 51.6962C272.285 51.2879 274.449 51.155 272.914 52.9899C269.225 57.2962 268.105 58.3577 260.824 58.3313C255.107 58.3105 248.829 58.5386 243.191 58.1636L242.994 9.43294C251.581 8.80804 261.53 9.3079 270.166 9.26692C287.248 9.1862 283.291 15.9643 291.447 16.0792L288.69 1.22769L223.614 1.20709C224.022 6.10157 228.594 4.37184 231.094 8.3405C233.478 12.1237 232.215 45.8186 232.215 51.5625C232.215 71.4727 232.117 91.4075 232.233 111.315C213.545 111.315 205.819 102.089 196.35 92.629C191.676 87.9597 176.125 68.7667 172.846 62.3009C193.45 58.0411 212.864 35.7928 194.56 14.954C181.697 0.30876 164.216 1.4078 146.555 1.21139L126.077 2.53568C128.161 6.27745 133.166 5.14409 134.565 10.2796L134.561 109.747C132.923 115.921 127.022 113.59 126.212 118.341C129.175 119.803 151.033 119.812 154.132 118.341C153.46 113.932 148.444 115.83 146.192 111.074C144.464 107.425 145.26 69.6399 145.82 66.0867C166.612 66.2707 167.646 73.2086 177.269 84.5067C205.87 118.085 207.927 120.152 242.883 119.439C259.61 119.099 277.412 120.131 293.914 119.242L296.737 104.674C289.041 104.626 290.977 110.867 283.114 110.49L243.539 110.468L243.505 66.6999C252.075 66.6999 259.783 66.8635 268.044 67.3284C273.563 68.7057 268.219 70.2368 273.571 71.1124C275.716 67.5127 275.874 60.4687 276.127 55.8077H276.127ZM485.333 9.79472C488.6 3.24093 493.017 6.97951 493.804 1.17714L465.717 1.24808C466.14 6.41287 471.972 4.43032 473.866 10.0504C474.678 12.4613 474.258 22.9411 474.258 26.2039L474.109 110.372C472.916 117.202 466.815 114.558 465.602 119.186C469.102 121.65 487.789 120.073 493.542 120.076C493.308 114.783 488.761 117.594 485.186 111.229L484.99 51.4621C492.523 57.9038 523.982 107.1 534.862 116.22C543.152 123.168 556.932 122.967 561.092 112.794C539.924 113.006 545.739 117.99 523.467 87.8019C519.03 81.7879 497.623 54.2915 496.091 49.8722C503.041 40.9625 512.177 32.4101 519.906 23.6509C525.747 17.0312 531.508 10.676 540.194 6.54829C543.954 4.76127 547.378 5.16811 547.71 1.69064L517.487 1.19108C517.961 6.10839 519.726 2.49884 523.936 5.93487C523.801 11.3887 485.771 48.7477 485.057 49.1452L485.333 9.7948L485.333 9.79472ZM853.964 -9.59016e-05H846.588C841.131 2.77916 833.804 2.62388 827.754 13.64C809.275 47.2904 873.622 57.94 874.797 88.7522C875.548 108.462 849.954 116.249 835.316 109.984C824.735 105.455 825.959 100.358 818.911 94.6521L818.687 109.346C827.341 112.046 833.896 118.731 844.793 120.01C878.569 123.975 896.532 85.9442 872.938 62.4643C865.916 55.4758 837.37 35.3865 834.837 28.3371C831.018 17.7078 841.103 8.97088 849.805 8.09271C862.418 6.81993 868.18 15.0977 874.679 19.2969L874.566 8.27364C870.695 6.97737 857.253 1.6882 853.964 -9.59016e-05ZM778.085 -9.59016e-05H769.366C761.397 5.68583 756.852 3.94988 751.756 14.3245C734.961 48.5183 797.437 57.197 799.057 88.7493C800.011 107.308 775.464 116.394 760.077 110.191C749.882 106.081 749.786 100.241 743.314 94.4842L742.775 109.296C750.832 111.711 774.746 131.029 796.155 112.453C812.657 98.1344 811.429 76.4765 797.592 62.7922C790.127 55.4088 762.803 35.9695 759.569 29.5015C754.401 19.1659 764.616 9.72023 772.345 8.34242C786.446 5.82866 791.293 14.9422 799.122 19.1247L798.825 8.44211C791.754 4.7775 784.299 2.9615 778.085 -9.59016e-05ZM893.4 2.53568C896.058 8.64023 902.113 2.57452 902.113 16.0605L902.059 98.8992C902.065 102.657 902.888 108.518 901.037 111.633C898.489 115.92 894.153 114.072 893.52 118.341C901.124 120.175 948.755 119.035 962.983 118.853L966.243 104.131C959.51 104.366 959.441 110.944 947.869 110.944L912.828 110.891L912.814 65.8581C953.263 64.8608 933.676 70.0971 943.681 71.0052L946.373 51.8692C939.288 52.0247 942.748 57.6709 933.41 58.1652C927.254 58.4911 919.417 58.2263 913.149 58.1063C912.324 50.3173 912.573 18.6713 912.979 9.44058L942.754 9.4176C955.923 9.4176 953.38 15.8986 960.951 16.2608L958.368 1.67982C951.63 0.805509 920.744 1.40262 909.508 1.29284C904.939 1.248 896.085 0.037038 893.4 2.53568H893.4ZM70.5181 -9.59016e-05H59.7979C55.9898 1.72963 49.7603 2.07999 45.2942 3.53274C-6.38156 20.3421 -11.3584 93.1689 40.6057 115.224C64.9086 125.539 76.144 118.48 97.9644 113.022C101.036 115.053 103.663 117.7 109.029 118.478C105.072 104.88 105.95 99.4683 105.95 84.5291C105.95 80.0865 105.418 69.9998 106.127 66.208C107.508 58.8223 114.489 62.9156 114.022 56.8067L87.1 57.4798C87.9786 63.6646 95.5751 57.4393 95.5206 70.9622C95.4923 78.0204 95.4648 85.0774 95.4805 92.1372C95.5017 101.581 96.9221 104.101 89.2108 108C84.3409 110.462 78.5785 112.061 72.4267 112.644C-3.80334 119.871 -3.31306 3.61938 69.016 7.63065C88.5902 8.71636 90.7256 14.3984 99.5896 19.6167L99.4079 6.3097L70.518 5.23373e-05L70.5181 -9.59016e-05ZM380.237 56.7413C380.168 63.3547 388.579 57.4021 388.613 70.0945C388.633 77.4345 388.54 84.7919 388.567 92.1386C388.607 102.899 389.762 102.958 381.727 107.265C353.362 122.47 320.762 107.353 311.296 80.9352C291.013 24.335 354.484 -14.3043 392.547 19.8121L392.474 6.30221C367.061 0.203881 346.983 -3.82614 325.117 9.6596C285.992 33.79 288.312 90.6533 326.755 112.108C351.221 125.763 367.096 120.688 392.064 112.785C394.795 114.899 397.068 117.11 401.775 118.494C397.898 106.041 398.973 98.0898 398.973 84.529C398.973 79.6704 398.461 71.2479 399.012 66.8134C399.913 59.5568 405.806 62.5328 407.376 57.4796C402.989 55.0986 386.498 56.7412 380.237 56.7412L380.237 56.7413ZM985.788 -9.59016e-05H972.652C974.867 5.90678 987.711 15.0031 989.228 19.7883L989.418 109.745C987.966 117.026 981.505 112.756 981.053 119.257C987.141 119.237 1003.76 120.767 1007.62 118.341C1005.5 111.707 998.765 119.254 998.896 102.287C999.035 84.4053 997.787 41.9922 999.16 29.7618C1010.33 40.607 1042.79 80.9307 1057.44 96.7541L1076.58 119.199L1085.16 119.276C1086.03 107.158 1084.62 12.9444 1085.69 9.7816C1087.27 5.1329 1092.02 6.53228 1094 2.53553C1091.7 1.12474 1070.29 0.0692058 1067.3 2.53553C1070.24 9.86113 1076.01 -1.08787 1075.97 21.1319C1075.93 39.2814 1077.12 89.1524 1075.69 100.447C1068.29 93.6425 1040.34 59.4762 1031.44 49.842L992.671 5.43672C989.676 1.84496 989.066 2.55903 985.788 -0.000244141V-9.59016e-05ZM678.781 20.3845L693.765 57.7013L662.688 57.553L678.781 20.3845ZM588.982 8.45909C591.529 4.48154 595.933 5.86053 596.397 1.21331L568.61 1.69064C568.791 6.30221 575.19 4.10953 576.871 10.3315L576.821 110.491C575.582 114.798 570.076 114.316 568.407 118.341C571.047 120.17 573.637 119.388 578.751 119.359C591.361 119.286 646.86 121.003 650.264 118.341C648.279 113.456 639.046 116.527 642.105 107.704C644.002 102.235 659.171 64.7172 661.442 64.197L695.54 64.2018C698.244 64.8318 713.786 104.106 715.054 108.344C717.643 116.996 708.878 113.686 706.588 118.341C708.952 120.049 736.394 120.296 738.775 118.341C737.333 114.99 731.277 117.209 727.084 108.181L682.207 1.17722H677.846C673.719 7.40014 665.739 28.0008 662.239 36.2911C657.276 48.0473 652.238 59.4168 647.23 71.2885C628.383 115.967 633.484 112.573 611.999 112.569C605.949 112.567 592.825 113.297 588.49 111.318C586.504 104.387 587.797 62.8286 587.797 52.408C587.797 46.6315 586.563 12.2367 588.982 8.45924L588.982 8.45909Z" fill="white"/>
</g>
<defs>
<filter id="filter0_d_1_163" x="0" y="0" width="1098" height="129" filterUnits="userSpaceOnUse" color-interpolation-filters="sRGB">
<feFlood flood-opacity="0" result="BackgroundImageFix"/>
<feColorMatrix in="SourceAlpha" type="matrix" values="0 0 0 0 0 0 0 0 0 0 0 0 0 0 0 0 0 0 127 0" result="hardAlpha"/>
<feOffset dy="4"/>
<feGaussianBlur stdDeviation="2"/>
<feComposite in2="hardAlpha" operator="out"/>
<feColorMatrix type="matrix" values="0 0 0 0 0 0 0 0 0 0 0 0 0 0 0 0 0 0 0.5 0"/>
<feBlend mode="normal" in2="BackgroundImageFix" result="effect1_dropShadow_1_163"/>
<feBlend mode="normal" in="SourceGraphic" in2="effect1_dropShadow_1_163" result="shape"/>
</filter>
<clipPath id="clip0_1_163">
<rect width="1090" height="121" fill="white" transform="translate(4)"/>
</clipPath>
</defs>
</svg>
